<svg id="Wordmark" xmlns="http://www.w3.org/2000/svg" viewBox="0 0 961.35 640.3461"><defs><style>.cls-1{fill:#48d597;}</style></defs><path class="cls-1" d="M447.8,292.7932v54.7606c0,177.53-75.0752,292.7923-223.9005,292.7923S0,525.084,0,347.5538V292.7932C0,115.2631,75.0752,0,223.4585,0,372.7252,0,447.8,115.2631,447.8,292.7932ZM77.2831,347.5538c0,32.5466,2.6054,61.8882,7.7282,87.811L347.3766,153.9832C323.8028,97.4562,282.176,67.1263,223.9,67.1263c-95.3893,0-146.6168,81.2575-146.6168,225.6669ZM370.0759,292.802c0-28.8377-2.0229-55.158-6.0237-78.8113L103.33,493.6057C127.5038,545.4777,168.159,573.22,223.9,573.22c95.39,0,146.176-81.2576,146.176-225.666Z"/><path class="cls-1" d="M908.8478,185.48c1.7665-2.208,5.3-2.208,7.5075-.4414l43.2786,40.6283c2.2084,1.7665,2.2084,5.3.4418,7.5075L797.56,406.2888,960.0757,579.4031c1.7666,2.2079,1.7666,5.741-.4418,7.5075l-43.2786,40.6283c-2.2079,1.7666-5.741,1.7666-7.5075-.4414L750.749,456.6335,592.2078,627.0975c-1.7665,2.208-5.2991,2.208-7.5075.4414l-43.2786-40.6283c-2.2079-1.7665-2.2079-5.3-.4414-7.5075L703.4954,406.2888,540.98,233.1745c-1.7665-2.2079-1.7665-5.741.4414-7.5075L584.7,185.0387c2.2084-1.7666,5.741-1.7666,7.5075.4414L750.749,355.9441Z"/></svg>